<?xml version="1.0" encoding="UTF-8" standalone="no"?>
<!-- Created with Inkscape (http://www.inkscape.org/) -->

<svg
   xmlns:dc="http://purl.org/dc/elements/1.1/"
   xmlns:cc="http://creativecommons.org/ns#"
   xmlns:rdf="http://www.w3.org/1999/02/22-rdf-syntax-ns#"
   xmlns:svg="http://www.w3.org/2000/svg"
   xmlns="http://www.w3.org/2000/svg"
   xmlns:sodipodi="http://sodipodi.sourceforge.net/DTD/sodipodi-0.dtd"
   xmlns:inkscape="http://www.inkscape.org/namespaces/inkscape"
   width="744.09448"
   height="1052.3622"
   id="svg2"
   version="1.1"
   inkscape:version="0.48.3.1 r9886"
   sodipodi:docname="cut.svg">
  <defs
     id="defs4" />
  <sodipodi:namedview
     id="base"
     pagecolor="#ffffff"
     bordercolor="#666666"
     borderopacity="1.0"
     inkscape:pageopacity="0.0"
     inkscape:pageshadow="2"
     inkscape:zoom="2.8"
     inkscape:cx="298.80934"
     inkscape:cy="682.74004"
     inkscape:document-units="mm"
     inkscape:current-layer="layer1"
     showgrid="true"
     units="mm"
     inkscape:window-width="1366"
     inkscape:window-height="709"
     inkscape:window-x="0"
     inkscape:window-y="27"
     inkscape:window-maximized="1">
    <inkscape:grid
       type="xygrid"
       id="grid2985"
       empspacing="4"
       visible="true"
       enabled="true"
       snapvisiblegridlinesonly="true"
       units="mm"
       spacingx="0.25mm"
       spacingy="0.25mm" />
  </sodipodi:namedview>
  <metadata
     id="metadata7">
    <rdf:RDF>
      <cc:Work
         rdf:about="">
        <dc:format>image/svg+xml</dc:format>
        <dc:type
           rdf:resource="http://purl.org/dc/dcmitype/StillImage" />
        <dc:title></dc:title>
      </cc:Work>
    </rdf:RDF>
  </metadata>
  <g
     inkscape:label="Layer 1"
     inkscape:groupmode="layer"
     id="layer1"
     transform="translate(0,-2.5390623e-6)">
    <path
       style="fill:none;stroke:#000000;stroke-width:1px;stroke-linecap:butt;stroke-linejoin:miter;stroke-opacity:1"
       d="m 177.16535,875.19683 354.33071,0 0,-531.49606 -354.33071,0 z"
       id="path2987"
       inkscape:connector-curvature="0"
       transform="translate(0,2.5390623e-6)" />
    <path
       style="fill:none;stroke:#000000;stroke-width:1px;stroke-linecap:butt;stroke-linejoin:miter;stroke-opacity:1"
       d="m 180.70866,347.24407 124.01575,0 0,124.01575 -124.01575,0 z"
       id="path2989"
       inkscape:connector-curvature="0"
       transform="translate(0,2.5390623e-6)" />
    <path
       sodipodi:type="arc"
       style="fill:none;stroke:#000000;stroke-width:0.35433072;stroke-miterlimit:4;stroke-opacity:1;stroke-dasharray:none"
       id="path3769"
       sodipodi:cx="193.11023"
       sodipodi:cy="359.64566"
       sodipodi:rx="4.4291339"
       sodipodi:ry="4.4291339"
       d="m 197.53936,359.64566 a 4.4291339,4.4291339 0 1 1 -8.85826,0 4.4291339,4.4291339 0 1 1 8.85826,0 z"
       transform="translate(0,2.5390623e-6)" />
    <path
       sodipodi:type="arc"
       style="fill:none;stroke:#000000;stroke-width:0.35433072;stroke-miterlimit:4;stroke-opacity:1;stroke-dasharray:none"
       id="path3773"
       sodipodi:cx="292.32285"
       sodipodi:cy="359.64566"
       sodipodi:rx="4.4291339"
       sodipodi:ry="4.4291339"
       d="m 296.75198,359.64566 a 4.4291339,4.4291339 0 1 1 -8.85827,0 4.4291339,4.4291339 0 1 1 8.85827,0 z"
       transform="translate(0,2.5390623e-6)" />
    <path
       sodipodi:type="arc"
       style="fill:none;stroke:#000000;stroke-width:0.35433072;stroke-miterlimit:4;stroke-opacity:1;stroke-dasharray:none"
       id="path3775"
       sodipodi:cx="193.11023"
       sodipodi:cy="458.85825"
       sodipodi:rx="4.4291339"
       sodipodi:ry="4.4291339"
       d="m 197.53936,458.85825 a 4.4291339,4.4291339 0 1 1 -8.85826,0 4.4291339,4.4291339 0 1 1 8.85826,0 z"
       transform="translate(0,2.5390623e-6)" />
    <path
       sodipodi:type="arc"
       style="fill:none;stroke:#000000;stroke-width:0.35433072;stroke-miterlimit:4;stroke-opacity:1;stroke-dasharray:none"
       id="path3777"
       sodipodi:cx="292.32285"
       sodipodi:cy="458.85825"
       sodipodi:rx="4.4291339"
       sodipodi:ry="4.4291339"
       d="m 296.75198,458.85825 a 4.4291339,4.4291339 0 1 1 -8.85827,0 4.4291339,4.4291339 0 1 1 8.85827,0 z"
       transform="translate(0,2.5390623e-6)" />
    <path
       style="fill:none;stroke:#000000;stroke-width:1px;stroke-linecap:butt;stroke-linejoin:miter;stroke-opacity:1"
       d="m 308.26772,347.24407 124.01575,0 0,124.01575 -124.01575,0 z"
       id="path2989-9"
       inkscape:connector-curvature="0" />
    <path
       transform="translate(127.55906,7.8200292e-6)"
       sodipodi:type="arc"
       style="fill:none;stroke:#000000;stroke-width:0.35433072;stroke-miterlimit:4;stroke-opacity:1;stroke-dasharray:none"
       id="path3769-4"
       sodipodi:cx="193.11023"
       sodipodi:cy="359.64566"
       sodipodi:rx="4.4291339"
       sodipodi:ry="4.4291339"
       d="m 197.53936,359.64566 a 4.4291339,4.4291339 0 1 1 -8.85826,0 4.4291339,4.4291339 0 1 1 8.85826,0 z" />
    <path
       transform="translate(127.55906,7.8200292e-6)"
       sodipodi:type="arc"
       style="fill:none;stroke:#000000;stroke-width:0.35433072;stroke-miterlimit:4;stroke-opacity:1;stroke-dasharray:none"
       id="path3773-9"
       sodipodi:cx="292.32285"
       sodipodi:cy="359.64566"
       sodipodi:rx="4.4291339"
       sodipodi:ry="4.4291339"
       d="m 296.75198,359.64566 a 4.4291339,4.4291339 0 1 1 -8.85827,0 4.4291339,4.4291339 0 1 1 8.85827,0 z" />
    <path
       transform="translate(127.55906,7.8200292e-6)"
       sodipodi:type="arc"
       style="fill:none;stroke:#000000;stroke-width:0.35433072;stroke-miterlimit:4;stroke-opacity:1;stroke-dasharray:none"
       id="path3775-5"
       sodipodi:cx="193.11023"
       sodipodi:cy="458.85825"
       sodipodi:rx="4.4291339"
       sodipodi:ry="4.4291339"
       d="m 197.53936,458.85825 a 4.4291339,4.4291339 0 1 1 -8.85826,0 4.4291339,4.4291339 0 1 1 8.85826,0 z" />
    <path
       transform="translate(127.55906,7.8200292e-6)"
       sodipodi:type="arc"
       style="fill:none;stroke:#000000;stroke-width:0.35433072;stroke-miterlimit:4;stroke-opacity:1;stroke-dasharray:none"
       id="path3777-8"
       sodipodi:cx="292.32285"
       sodipodi:cy="458.85825"
       sodipodi:rx="4.4291339"
       sodipodi:ry="4.4291339"
       d="m 296.75198,458.85825 a 4.4291339,4.4291339 0 1 1 -8.85827,0 4.4291339,4.4291339 0 1 1 8.85827,0 z" />
    <path
       style="fill:none;stroke:#000000;stroke-width:1px;stroke-linecap:butt;stroke-linejoin:miter;stroke-opacity:1"
       d="m 180.70866,474.80313 124.01575,0 0,124.01575 -124.01575,0 z"
       id="path2989-2"
       inkscape:connector-curvature="0" />
    <path
       transform="translate(-1.1826772e-6,127.55906)"
       sodipodi:type="arc"
       style="fill:none;stroke:#000000;stroke-width:0.35433072;stroke-miterlimit:4;stroke-opacity:1;stroke-dasharray:none"
       id="path3769-41"
       sodipodi:cx="193.11023"
       sodipodi:cy="359.64566"
       sodipodi:rx="4.4291339"
       sodipodi:ry="4.4291339"
       d="m 197.53936,359.64566 a 4.4291339,4.4291339 0 1 1 -8.85826,0 4.4291339,4.4291339 0 1 1 8.85826,0 z" />
    <path
       transform="translate(-1.1826772e-6,127.55906)"
       sodipodi:type="arc"
       style="fill:none;stroke:#000000;stroke-width:0.35433072;stroke-miterlimit:4;stroke-opacity:1;stroke-dasharray:none"
       id="path3773-1"
       sodipodi:cx="292.32285"
       sodipodi:cy="359.64566"
       sodipodi:rx="4.4291339"
       sodipodi:ry="4.4291339"
       d="m 296.75198,359.64566 a 4.4291339,4.4291339 0 1 1 -8.85827,0 4.4291339,4.4291339 0 1 1 8.85827,0 z" />
    <path
       transform="translate(-1.1826772e-6,127.55906)"
       sodipodi:type="arc"
       style="fill:none;stroke:#000000;stroke-width:0.35433072;stroke-miterlimit:4;stroke-opacity:1;stroke-dasharray:none"
       id="path3775-8"
       sodipodi:cx="193.11023"
       sodipodi:cy="458.85825"
       sodipodi:rx="4.4291339"
       sodipodi:ry="4.4291339"
       d="m 197.53936,458.85825 a 4.4291339,4.4291339 0 1 1 -8.85826,0 4.4291339,4.4291339 0 1 1 8.85826,0 z" />
    <path
       transform="translate(-1.1826772e-6,127.55906)"
       sodipodi:type="arc"
       style="fill:none;stroke:#000000;stroke-width:0.35433072;stroke-miterlimit:4;stroke-opacity:1;stroke-dasharray:none"
       id="path3777-3"
       sodipodi:cx="292.32285"
       sodipodi:cy="458.85825"
       sodipodi:rx="4.4291339"
       sodipodi:ry="4.4291339"
       d="m 296.75198,458.85825 a 4.4291339,4.4291339 0 1 1 -8.85827,0 4.4291339,4.4291339 0 1 1 8.85827,0 z" />
    <path
       style="fill:none;stroke:#000000;stroke-width:1px;stroke-linecap:butt;stroke-linejoin:miter;stroke-opacity:1"
       d="m 308.26772,474.80313 124.01575,0 0,124.01575 -124.01575,0 z"
       id="path2989-9-1"
       inkscape:connector-curvature="0" />
    <path
       transform="translate(127.55906,127.55907)"
       sodipodi:type="arc"
       style="fill:none;stroke:#000000;stroke-width:0.35433072;stroke-miterlimit:4;stroke-opacity:1;stroke-dasharray:none"
       id="path3769-4-3"
       sodipodi:cx="193.11023"
       sodipodi:cy="359.64566"
       sodipodi:rx="4.4291339"
       sodipodi:ry="4.4291339"
       d="m 197.53936,359.64566 a 4.4291339,4.4291339 0 1 1 -8.85826,0 4.4291339,4.4291339 0 1 1 8.85826,0 z" />
    <path
       transform="translate(127.55906,127.55907)"
       sodipodi:type="arc"
       style="fill:none;stroke:#000000;stroke-width:0.35433072;stroke-miterlimit:4;stroke-opacity:1;stroke-dasharray:none"
       id="path3773-9-7"
       sodipodi:cx="292.32285"
       sodipodi:cy="359.64566"
       sodipodi:rx="4.4291339"
       sodipodi:ry="4.4291339"
       d="m 296.75198,359.64566 a 4.4291339,4.4291339 0 1 1 -8.85827,0 4.4291339,4.4291339 0 1 1 8.85827,0 z" />
    <path
       transform="translate(127.55906,127.55907)"
       sodipodi:type="arc"
       style="fill:none;stroke:#000000;stroke-width:0.35433072;stroke-miterlimit:4;stroke-opacity:1;stroke-dasharray:none"
       id="path3775-5-7"
       sodipodi:cx="193.11023"
       sodipodi:cy="458.85825"
       sodipodi:rx="4.4291339"
       sodipodi:ry="4.4291339"
       d="m 197.53936,458.85825 a 4.4291339,4.4291339 0 1 1 -8.85826,0 4.4291339,4.4291339 0 1 1 8.85826,0 z" />
    <path
       transform="translate(127.55906,127.55907)"
       sodipodi:type="arc"
       style="fill:none;stroke:#000000;stroke-width:0.35433072;stroke-miterlimit:4;stroke-opacity:1;stroke-dasharray:none"
       id="path3777-8-4"
       sodipodi:cx="292.32285"
       sodipodi:cy="458.85825"
       sodipodi:rx="4.4291339"
       sodipodi:ry="4.4291339"
       d="m 296.75198,458.85825 a 4.4291339,4.4291339 0 1 1 -8.85827,0 4.4291339,4.4291339 0 1 1 8.85827,0 z" />
    <path
       style="fill:none;stroke:#000000;stroke-width:1px;stroke-linecap:butt;stroke-linejoin:miter;stroke-opacity:1"
       d="m 180.70866,602.36219 124.01575,0 0,124.01575 -124.01575,0 z"
       id="path2989-2-4"
       inkscape:connector-curvature="0" />
    <path
       transform="translate(4.3173229e-6,255.11812)"
       sodipodi:type="arc"
       style="fill:none;stroke:#000000;stroke-width:0.35433072;stroke-miterlimit:4;stroke-opacity:1;stroke-dasharray:none"
       id="path3769-41-4"
       sodipodi:cx="193.11023"
       sodipodi:cy="359.64566"
       sodipodi:rx="4.4291339"
       sodipodi:ry="4.4291339"
       d="m 197.53936,359.64566 a 4.4291339,4.4291339 0 1 1 -8.85826,0 4.4291339,4.4291339 0 1 1 8.85826,0 z" />
    <path
       transform="translate(4.3173229e-6,255.11812)"
       sodipodi:type="arc"
       style="fill:none;stroke:#000000;stroke-width:0.35433072;stroke-miterlimit:4;stroke-opacity:1;stroke-dasharray:none"
       id="path3773-1-3"
       sodipodi:cx="292.32285"
       sodipodi:cy="359.64566"
       sodipodi:rx="4.4291339"
       sodipodi:ry="4.4291339"
       d="m 296.75198,359.64566 a 4.4291339,4.4291339 0 1 1 -8.85827,0 4.4291339,4.4291339 0 1 1 8.85827,0 z" />
    <path
       transform="translate(4.3173229e-6,255.11812)"
       sodipodi:type="arc"
       style="fill:none;stroke:#000000;stroke-width:0.35433072;stroke-miterlimit:4;stroke-opacity:1;stroke-dasharray:none"
       id="path3775-8-7"
       sodipodi:cx="193.11023"
       sodipodi:cy="458.85825"
       sodipodi:rx="4.4291339"
       sodipodi:ry="4.4291339"
       d="m 197.53936,458.85825 a 4.4291339,4.4291339 0 1 1 -8.85826,0 4.4291339,4.4291339 0 1 1 8.85826,0 z" />
    <path
       transform="translate(4.3173229e-6,255.11812)"
       sodipodi:type="arc"
       style="fill:none;stroke:#000000;stroke-width:0.35433072;stroke-miterlimit:4;stroke-opacity:1;stroke-dasharray:none"
       id="path3777-3-0"
       sodipodi:cx="292.32285"
       sodipodi:cy="458.85825"
       sodipodi:rx="4.4291339"
       sodipodi:ry="4.4291339"
       d="m 296.75198,458.85825 a 4.4291339,4.4291339 0 1 1 -8.85827,0 4.4291339,4.4291339 0 1 1 8.85827,0 z" />
    <path
       sodipodi:type="arc"
       style="fill:none;stroke:#000000;stroke-width:0.35433072;stroke-miterlimit:4;stroke-opacity:1;stroke-dasharray:none"
       id="path3899"
       sodipodi:cx="391.53543"
       sodipodi:cy="391.5354"
       sodipodi:rx="58.464565"
       sodipodi:ry="58.464565"
       d="m 450,391.5354 a 58.464565,58.464565 0 1 1 -116.92913,0 58.464565,58.464565 0 1 1 116.92913,0 z"
       transform="translate(-21.25984,17.716547)" />
    <path
       sodipodi:type="arc"
       style="fill:none;stroke:#000000;stroke-width:0.35433072;stroke-miterlimit:4;stroke-opacity:1;stroke-dasharray:none"
       id="path3920"
       sodipodi:cx="240.94489"
       sodipodi:cy="535.03937"
       sodipodi:rx="21.259842"
       sodipodi:ry="21.259842"
       d="m 262.20473,535.03937 a 21.259842,21.259842 0 1 1 -42.51969,0 21.259842,21.259842 0 1 1 42.51969,0 z"
       transform="translate(1.7716502,1.7716358)" />
    <path
       sodipodi:type="arc"
       style="fill:none;stroke:#000000;stroke-width:0.35433072;stroke-miterlimit:4;stroke-opacity:1;stroke-dasharray:none"
       id="path3938"
       sodipodi:cx="370.71851"
       sodipodi:cy="529.28149"
       sodipodi:rx="44.734253"
       sodipodi:ry="44.734253"
       d="m 415.45276,529.28149 a 44.734253,44.734253 0 1 1 -89.46851,0 44.734253,44.734253 0 1 1 89.46851,0 z"
       transform="translate(-0.44291531,7.5295109)" />
    <path
       style="fill:none;stroke:#000000;stroke-width:1px;stroke-linecap:butt;stroke-linejoin:miter;stroke-opacity:1"
       d="m 308.26772,602.36219 124.01575,0 0,124.01575 -124.01575,0 z"
       id="path2989-2-9"
       inkscape:connector-curvature="0" />
    <path
       transform="translate(127.55906,255.11812)"
       sodipodi:type="arc"
       style="fill:none;stroke:#000000;stroke-width:0.35433072;stroke-miterlimit:4;stroke-opacity:1;stroke-dasharray:none"
       id="path3769-41-2"
       sodipodi:cx="193.11023"
       sodipodi:cy="359.64566"
       sodipodi:rx="4.4291339"
       sodipodi:ry="4.4291339"
       d="m 197.53936,359.64566 a 4.4291339,4.4291339 0 1 1 -8.85826,0 4.4291339,4.4291339 0 1 1 8.85826,0 z" />
    <path
       transform="translate(127.55906,255.11812)"
       sodipodi:type="arc"
       style="fill:none;stroke:#000000;stroke-width:0.35433072;stroke-miterlimit:4;stroke-opacity:1;stroke-dasharray:none"
       id="path3773-1-4"
       sodipodi:cx="292.32285"
       sodipodi:cy="359.64566"
       sodipodi:rx="4.4291339"
       sodipodi:ry="4.4291339"
       d="m 296.75198,359.64566 a 4.4291339,4.4291339 0 1 1 -8.85827,0 4.4291339,4.4291339 0 1 1 8.85827,0 z" />
    <path
       transform="translate(127.55906,255.11812)"
       sodipodi:type="arc"
       style="fill:none;stroke:#000000;stroke-width:0.35433072;stroke-miterlimit:4;stroke-opacity:1;stroke-dasharray:none"
       id="path3775-8-0"
       sodipodi:cx="193.11023"
       sodipodi:cy="458.85825"
       sodipodi:rx="4.4291339"
       sodipodi:ry="4.4291339"
       d="m 197.53936,458.85825 a 4.4291339,4.4291339 0 1 1 -8.85826,0 4.4291339,4.4291339 0 1 1 8.85826,0 z" />
    <path
       transform="translate(127.55906,255.11812)"
       sodipodi:type="arc"
       style="fill:none;stroke:#000000;stroke-width:0.35433072;stroke-miterlimit:4;stroke-opacity:1;stroke-dasharray:none"
       id="path3777-3-3"
       sodipodi:cx="292.32285"
       sodipodi:cy="458.85825"
       sodipodi:rx="4.4291339"
       sodipodi:ry="4.4291339"
       d="m 296.75198,458.85825 a 4.4291339,4.4291339 0 1 1 -8.85827,0 4.4291339,4.4291339 0 1 1 8.85827,0 z" />
    <path
       sodipodi:type="arc"
       style="fill:none;stroke:#000000;stroke-width:0.35433072;stroke-miterlimit:4;stroke-opacity:1;stroke-dasharray:none"
       id="path3920-5"
       sodipodi:cx="240.94489"
       sodipodi:cy="535.03937"
       sodipodi:rx="21.259842"
       sodipodi:ry="21.259842"
       d="m 262.20473,535.03937 a 21.259842,21.259842 0 1 1 -42.51969,0 21.259842,21.259842 0 1 1 42.51969,0 z"
       transform="translate(129.33071,129.33071)" />
    <path
       style="fill:none;stroke:#000000;stroke-width:1px;stroke-linecap:butt;stroke-linejoin:miter;stroke-opacity:1"
       d="m 180.70866,729.92124 124.01575,0 0,124.01575 -124.01575,0 z"
       id="path2989-2-4-4"
       inkscape:connector-curvature="0" />
    <path
       transform="translate(-1.1826772e-6,382.67717)"
       sodipodi:type="arc"
       style="fill:none;stroke:#000000;stroke-width:0.35433072;stroke-miterlimit:4;stroke-opacity:1;stroke-dasharray:none"
       id="path3769-41-4-4"
       sodipodi:cx="193.11023"
       sodipodi:cy="359.64566"
       sodipodi:rx="4.4291339"
       sodipodi:ry="4.4291339"
       d="m 197.53936,359.64566 a 4.4291339,4.4291339 0 1 1 -8.85826,0 4.4291339,4.4291339 0 1 1 8.85826,0 z" />
    <path
       transform="translate(-1.1826772e-6,382.67717)"
       sodipodi:type="arc"
       style="fill:none;stroke:#000000;stroke-width:0.35433072;stroke-miterlimit:4;stroke-opacity:1;stroke-dasharray:none"
       id="path3773-1-3-1"
       sodipodi:cx="292.32285"
       sodipodi:cy="359.64566"
       sodipodi:rx="4.4291339"
       sodipodi:ry="4.4291339"
       d="m 296.75198,359.64566 a 4.4291339,4.4291339 0 1 1 -8.85827,0 4.4291339,4.4291339 0 1 1 8.85827,0 z" />
    <path
       transform="translate(-1.1826772e-6,382.67717)"
       sodipodi:type="arc"
       style="fill:none;stroke:#000000;stroke-width:0.35433072;stroke-miterlimit:4;stroke-opacity:1;stroke-dasharray:none"
       id="path3775-8-7-2"
       sodipodi:cx="193.11023"
       sodipodi:cy="458.85825"
       sodipodi:rx="4.4291339"
       sodipodi:ry="4.4291339"
       d="m 197.53936,458.85825 a 4.4291339,4.4291339 0 1 1 -8.85826,0 4.4291339,4.4291339 0 1 1 8.85826,0 z" />
    <path
       transform="translate(-1.1826772e-6,382.67717)"
       sodipodi:type="arc"
       style="fill:none;stroke:#000000;stroke-width:0.35433072;stroke-miterlimit:4;stroke-opacity:1;stroke-dasharray:none"
       id="path3777-3-0-6"
       sodipodi:cx="292.32285"
       sodipodi:cy="458.85825"
       sodipodi:rx="4.4291339"
       sodipodi:ry="4.4291339"
       d="m 296.75198,458.85825 a 4.4291339,4.4291339 0 1 1 -8.85827,0 4.4291339,4.4291339 0 1 1 8.85827,0 z" />
    <path
       style="fill:none;stroke:#000000;stroke-width:1px;stroke-linecap:butt;stroke-linejoin:miter;stroke-opacity:1"
       d="m 205.51181,627.16533 74.40945,0 0,74.40945 -74.40945,0 z"
       id="path4022"
       inkscape:connector-curvature="0"
       transform="translate(0,2.5390623e-6)" />
    <path
       style="fill:none;stroke:#000000;stroke-width:1px;stroke-linecap:butt;stroke-linejoin:miter;stroke-opacity:1"
       d="m 204.62598,753.83856 76.18111,0 0,76.1811 -76.18111,0 z"
       id="path4028"
       inkscape:connector-curvature="0" />
  </g>
</svg>
