<?xml version="1.0" encoding="UTF-8" standalone="no"?>
<!-- Created with Inkscape (http://www.inkscape.org/) -->

<svg
   xmlns:dc="http://purl.org/dc/elements/1.1/"
   xmlns:cc="http://creativecommons.org/ns#"
   xmlns:rdf="http://www.w3.org/1999/02/22-rdf-syntax-ns#"
   xmlns:svg="http://www.w3.org/2000/svg"
   xmlns="http://www.w3.org/2000/svg"
   xmlns:sodipodi="http://sodipodi.sourceforge.net/DTD/sodipodi-0.dtd"
   xmlns:inkscape="http://www.inkscape.org/namespaces/inkscape"
   width="744.09448"
   height="1052.3622"
   id="svg2"
   version="1.1"
   inkscape:version="0.48.4 r9939"
   sodipodi:docname="description.svg">
  <defs
     id="defs4" />
  <sodipodi:namedview
     id="base"
     pagecolor="#ffffff"
     bordercolor="#666666"
     borderopacity="1.0"
     inkscape:pageopacity="0.0"
     inkscape:pageshadow="2"
     inkscape:zoom="2.8"
     inkscape:cx="400.81215"
     inkscape:cy="453.78184"
     inkscape:document-units="mm"
     inkscape:current-layer="layer1"
     showgrid="true"
     units="mm"
     inkscape:window-width="1920"
     inkscape:window-height="1018"
     inkscape:window-x="-8"
     inkscape:window-y="-8"
     inkscape:window-maximized="1"
     objecttolerance="10000">
    <inkscape:grid
       type="xygrid"
       id="grid2985"
       empspacing="5"
       visible="true"
       enabled="true"
       snapvisiblegridlinesonly="true"
       units="mm"
       spacingx="0.5mm"
       spacingy="0.5mm" />
  </sodipodi:namedview>
  <metadata
     id="metadata7">
    <rdf:RDF>
      <cc:Work
         rdf:about="">
        <dc:format>image/svg+xml</dc:format>
        <dc:type
           rdf:resource="http://purl.org/dc/dcmitype/StillImage" />
        <dc:title></dc:title>
      </cc:Work>
    </rdf:RDF>
  </metadata>
  <g
     inkscape:label="Layer 1"
     inkscape:groupmode="layer"
     id="layer1"
     transform="translate(0,-2.5390623e-6)">
    <path
       style="fill:none;stroke:#000000;stroke-width:0.17716535;stroke-linecap:butt;stroke-linejoin:miter;stroke-opacity:1;stroke-miterlimit:4;stroke-dasharray:none;marker-start:none"
       d="m 177.16535,875.19683 354.33071,0 0,-531.49606 -354.33071,0 z"
       id="path2987"
       inkscape:connector-curvature="0"
       transform="translate(0,2.5390623e-6)" />
    <path
       style="fill:none;stroke:#000000;stroke-width:0.17716535;stroke-linecap:butt;stroke-linejoin:miter;stroke-opacity:1;stroke-miterlimit:4;stroke-dasharray:none;marker-start:none"
       d="m 180.70866,347.24407 124.01575,0 0,124.01575 -124.01575,0 z"
       id="path2989"
       inkscape:connector-curvature="0"
       transform="translate(0,2.5390623e-6)" />
    <path
       sodipodi:type="arc"
       style="fill:none;stroke:#000000;stroke-width:0.17716535;stroke-miterlimit:4;stroke-opacity:1;stroke-dasharray:none;marker-start:none"
       id="path3769"
       sodipodi:cx="193.11023"
       sodipodi:cy="359.64566"
       sodipodi:rx="4.4291339"
       sodipodi:ry="4.4291339"
       d="m 197.53936,359.64566 c 0,2.44614 -1.98299,4.42913 -4.42913,4.42913 -2.44614,0 -4.42913,-1.98299 -4.42913,-4.42913 0,-2.44614 1.98299,-4.42913 4.42913,-4.42913 2.44614,0 4.42913,1.98299 4.42913,4.42913 z"
       transform="translate(0,2.5390623e-6)" />
    <path
       sodipodi:type="arc"
       style="fill:none;stroke:#000000;stroke-width:0.17716535;stroke-miterlimit:4;stroke-opacity:1;stroke-dasharray:none;marker-start:none"
       id="path3773"
       sodipodi:cx="292.32285"
       sodipodi:cy="359.64566"
       sodipodi:rx="4.4291339"
       sodipodi:ry="4.4291339"
       d="m 296.75198,359.64566 c 0,2.44614 -1.98299,4.42913 -4.42913,4.42913 -2.44615,0 -4.42914,-1.98299 -4.42914,-4.42913 0,-2.44614 1.98299,-4.42913 4.42914,-4.42913 2.44614,0 4.42913,1.98299 4.42913,4.42913 z"
       transform="translate(0,2.5390623e-6)" />
    <path
       sodipodi:type="arc"
       style="fill:none;stroke:#000000;stroke-width:0.17716535;stroke-miterlimit:4;stroke-opacity:1;stroke-dasharray:none;marker-start:none"
       id="path3775"
       sodipodi:cx="193.11023"
       sodipodi:cy="458.85825"
       sodipodi:rx="4.4291339"
       sodipodi:ry="4.4291339"
       d="m 197.53936,458.85825 c 0,2.44614 -1.98299,4.42913 -4.42913,4.42913 -2.44614,0 -4.42913,-1.98299 -4.42913,-4.42913 0,-2.44615 1.98299,-4.42914 4.42913,-4.42914 2.44614,0 4.42913,1.98299 4.42913,4.42914 z"
       transform="translate(0,2.5390623e-6)" />
    <path
       sodipodi:type="arc"
       style="fill:none;stroke:#000000;stroke-width:0.17716535;stroke-miterlimit:4;stroke-opacity:1;stroke-dasharray:none;marker-start:none"
       id="path3777"
       sodipodi:cx="292.32285"
       sodipodi:cy="458.85825"
       sodipodi:rx="4.4291339"
       sodipodi:ry="4.4291339"
       d="m 296.75198,458.85825 c 0,2.44614 -1.98299,4.42913 -4.42913,4.42913 -2.44615,0 -4.42914,-1.98299 -4.42914,-4.42913 0,-2.44615 1.98299,-4.42914 4.42914,-4.42914 2.44614,0 4.42913,1.98299 4.42913,4.42914 z"
       transform="translate(0,2.5390623e-6)" />
    <path
       style="fill:none;stroke:#000000;stroke-width:0.17716535;stroke-linecap:butt;stroke-linejoin:miter;stroke-opacity:1;stroke-miterlimit:4;stroke-dasharray:none;marker-start:none"
       d="m 308.26772,347.24407 124.01575,0 0,124.01575 -124.01575,0 z"
       id="path2989-9"
       inkscape:connector-curvature="0" />
    <path
       transform="translate(127.55906,7.8200292e-6)"
       sodipodi:type="arc"
       style="fill:none;stroke:#000000;stroke-width:0.17716535;stroke-miterlimit:4;stroke-opacity:1;stroke-dasharray:none;marker-start:none"
       id="path3769-4"
       sodipodi:cx="193.11023"
       sodipodi:cy="359.64566"
       sodipodi:rx="4.4291339"
       sodipodi:ry="4.4291339"
       d="m 197.53936,359.64566 c 0,2.44614 -1.98299,4.42913 -4.42913,4.42913 -2.44614,0 -4.42913,-1.98299 -4.42913,-4.42913 0,-2.44614 1.98299,-4.42913 4.42913,-4.42913 2.44614,0 4.42913,1.98299 4.42913,4.42913 z" />
    <path
       transform="translate(127.55906,7.8200292e-6)"
       sodipodi:type="arc"
       style="fill:none;stroke:#000000;stroke-width:0.17716535;stroke-miterlimit:4;stroke-opacity:1;stroke-dasharray:none;marker-start:none"
       id="path3773-9"
       sodipodi:cx="292.32285"
       sodipodi:cy="359.64566"
       sodipodi:rx="4.4291339"
       sodipodi:ry="4.4291339"
       d="m 296.75198,359.64566 c 0,2.44614 -1.98299,4.42913 -4.42913,4.42913 -2.44615,0 -4.42914,-1.98299 -4.42914,-4.42913 0,-2.44614 1.98299,-4.42913 4.42914,-4.42913 2.44614,0 4.42913,1.98299 4.42913,4.42913 z" />
    <path
       transform="translate(127.55906,7.8200292e-6)"
       sodipodi:type="arc"
       style="fill:none;stroke:#000000;stroke-width:0.17716535;stroke-miterlimit:4;stroke-opacity:1;stroke-dasharray:none;marker-start:none"
       id="path3775-5"
       sodipodi:cx="193.11023"
       sodipodi:cy="458.85825"
       sodipodi:rx="4.4291339"
       sodipodi:ry="4.4291339"
       d="m 197.53936,458.85825 c 0,2.44614 -1.98299,4.42913 -4.42913,4.42913 -2.44614,0 -4.42913,-1.98299 -4.42913,-4.42913 0,-2.44615 1.98299,-4.42914 4.42913,-4.42914 2.44614,0 4.42913,1.98299 4.42913,4.42914 z" />
    <path
       transform="translate(127.55906,7.8200292e-6)"
       sodipodi:type="arc"
       style="fill:none;stroke:#000000;stroke-width:0.17716535;stroke-miterlimit:4;stroke-opacity:1;stroke-dasharray:none;marker-start:none"
       id="path3777-8"
       sodipodi:cx="292.32285"
       sodipodi:cy="458.85825"
       sodipodi:rx="4.4291339"
       sodipodi:ry="4.4291339"
       d="m 296.75198,458.85825 c 0,2.44614 -1.98299,4.42913 -4.42913,4.42913 -2.44615,0 -4.42914,-1.98299 -4.42914,-4.42913 0,-2.44615 1.98299,-4.42914 4.42914,-4.42914 2.44614,0 4.42913,1.98299 4.42913,4.42914 z" />
    <path
       style="fill:none;stroke:#000000;stroke-width:0.17716535;stroke-linecap:butt;stroke-linejoin:miter;stroke-opacity:1;stroke-miterlimit:4;stroke-dasharray:none;marker-start:none"
       d="m 180.70866,474.80313 124.01575,0 0,124.01575 -124.01575,0 z"
       id="path2989-2"
       inkscape:connector-curvature="0" />
    <path
       transform="translate(-1.1826772e-6,127.55906)"
       sodipodi:type="arc"
       style="fill:none;stroke:#000000;stroke-width:0.17716535;stroke-miterlimit:4;stroke-opacity:1;stroke-dasharray:none;marker-start:none"
       id="path3769-41"
       sodipodi:cx="193.11023"
       sodipodi:cy="359.64566"
       sodipodi:rx="4.4291339"
       sodipodi:ry="4.4291339"
       d="m 197.53936,359.64566 c 0,2.44614 -1.98299,4.42913 -4.42913,4.42913 -2.44614,0 -4.42913,-1.98299 -4.42913,-4.42913 0,-2.44614 1.98299,-4.42913 4.42913,-4.42913 2.44614,0 4.42913,1.98299 4.42913,4.42913 z" />
    <path
       transform="translate(-1.1826772e-6,127.55906)"
       sodipodi:type="arc"
       style="fill:none;stroke:#000000;stroke-width:0.17716535;stroke-miterlimit:4;stroke-opacity:1;stroke-dasharray:none;marker-start:none"
       id="path3773-1"
       sodipodi:cx="292.32285"
       sodipodi:cy="359.64566"
       sodipodi:rx="4.4291339"
       sodipodi:ry="4.4291339"
       d="m 296.75198,359.64566 c 0,2.44614 -1.98299,4.42913 -4.42913,4.42913 -2.44615,0 -4.42914,-1.98299 -4.42914,-4.42913 0,-2.44614 1.98299,-4.42913 4.42914,-4.42913 2.44614,0 4.42913,1.98299 4.42913,4.42913 z" />
    <path
       transform="translate(-1.1826772e-6,127.55906)"
       sodipodi:type="arc"
       style="fill:none;stroke:#000000;stroke-width:0.17716535;stroke-miterlimit:4;stroke-opacity:1;stroke-dasharray:none;marker-start:none"
       id="path3775-8"
       sodipodi:cx="193.11023"
       sodipodi:cy="458.85825"
       sodipodi:rx="4.4291339"
       sodipodi:ry="4.4291339"
       d="m 197.53936,458.85825 c 0,2.44614 -1.98299,4.42913 -4.42913,4.42913 -2.44614,0 -4.42913,-1.98299 -4.42913,-4.42913 0,-2.44615 1.98299,-4.42914 4.42913,-4.42914 2.44614,0 4.42913,1.98299 4.42913,4.42914 z" />
    <path
       transform="translate(-1.1826772e-6,127.55906)"
       sodipodi:type="arc"
       style="fill:none;stroke:#000000;stroke-width:0.17716535;stroke-miterlimit:4;stroke-opacity:1;stroke-dasharray:none;marker-start:none"
       id="path3777-3"
       sodipodi:cx="292.32285"
       sodipodi:cy="458.85825"
       sodipodi:rx="4.4291339"
       sodipodi:ry="4.4291339"
       d="m 296.75198,458.85825 c 0,2.44614 -1.98299,4.42913 -4.42913,4.42913 -2.44615,0 -4.42914,-1.98299 -4.42914,-4.42913 0,-2.44615 1.98299,-4.42914 4.42914,-4.42914 2.44614,0 4.42913,1.98299 4.42913,4.42914 z" />
    <path
       style="fill:none;stroke:#000000;stroke-width:0.17716535;stroke-linecap:butt;stroke-linejoin:miter;stroke-opacity:1;stroke-miterlimit:4;stroke-dasharray:none;marker-start:none"
       d="m 308.26772,474.80313 124.01575,0 0,124.01575 -124.01575,0 z"
       id="path2989-9-1"
       inkscape:connector-curvature="0" />
    <path
       transform="translate(127.55906,127.55907)"
       sodipodi:type="arc"
       style="fill:none;stroke:#000000;stroke-width:0.17716535;stroke-miterlimit:4;stroke-opacity:1;stroke-dasharray:none;marker-start:none"
       id="path3769-4-3"
       sodipodi:cx="193.11023"
       sodipodi:cy="359.64566"
       sodipodi:rx="4.4291339"
       sodipodi:ry="4.4291339"
       d="m 197.53936,359.64566 c 0,2.44614 -1.98299,4.42913 -4.42913,4.42913 -2.44614,0 -4.42913,-1.98299 -4.42913,-4.42913 0,-2.44614 1.98299,-4.42913 4.42913,-4.42913 2.44614,0 4.42913,1.98299 4.42913,4.42913 z" />
    <path
       transform="translate(127.55906,127.55907)"
       sodipodi:type="arc"
       style="fill:none;stroke:#000000;stroke-width:0.17716535;stroke-miterlimit:4;stroke-opacity:1;stroke-dasharray:none;marker-start:none"
       id="path3773-9-7"
       sodipodi:cx="292.32285"
       sodipodi:cy="359.64566"
       sodipodi:rx="4.4291339"
       sodipodi:ry="4.4291339"
       d="m 296.75198,359.64566 c 0,2.44614 -1.98299,4.42913 -4.42913,4.42913 -2.44615,0 -4.42914,-1.98299 -4.42914,-4.42913 0,-2.44614 1.98299,-4.42913 4.42914,-4.42913 2.44614,0 4.42913,1.98299 4.42913,4.42913 z" />
    <path
       transform="translate(127.55906,127.55907)"
       sodipodi:type="arc"
       style="fill:none;stroke:#000000;stroke-width:0.17716535;stroke-miterlimit:4;stroke-opacity:1;stroke-dasharray:none;marker-start:none"
       id="path3775-5-7"
       sodipodi:cx="193.11023"
       sodipodi:cy="458.85825"
       sodipodi:rx="4.4291339"
       sodipodi:ry="4.4291339"
       d="m 197.53936,458.85825 c 0,2.44614 -1.98299,4.42913 -4.42913,4.42913 -2.44614,0 -4.42913,-1.98299 -4.42913,-4.42913 0,-2.44615 1.98299,-4.42914 4.42913,-4.42914 2.44614,0 4.42913,1.98299 4.42913,4.42914 z" />
    <path
       transform="translate(127.55906,127.55907)"
       sodipodi:type="arc"
       style="fill:none;stroke:#000000;stroke-width:0.17716535;stroke-miterlimit:4;stroke-opacity:1;stroke-dasharray:none;marker-start:none"
       id="path3777-8-4"
       sodipodi:cx="292.32285"
       sodipodi:cy="458.85825"
       sodipodi:rx="4.4291339"
       sodipodi:ry="4.4291339"
       d="m 296.75198,458.85825 c 0,2.44614 -1.98299,4.42913 -4.42913,4.42913 -2.44615,0 -4.42914,-1.98299 -4.42914,-4.42913 0,-2.44615 1.98299,-4.42914 4.42914,-4.42914 2.44614,0 4.42913,1.98299 4.42913,4.42914 z" />
    <path
       style="fill:none;stroke:#000000;stroke-width:0.17716535;stroke-linecap:butt;stroke-linejoin:miter;stroke-opacity:1;stroke-miterlimit:4;stroke-dasharray:none;marker-start:none"
       d="m 180.70866,602.36219 124.01575,0 0,124.01575 -124.01575,0 z"
       id="path2989-2-4"
       inkscape:connector-curvature="0" />
    <path
       transform="translate(4.3173229e-6,255.11812)"
       sodipodi:type="arc"
       style="fill:none;stroke:#000000;stroke-width:0.17716535;stroke-miterlimit:4;stroke-opacity:1;stroke-dasharray:none;marker-start:none"
       id="path3769-41-4"
       sodipodi:cx="193.11023"
       sodipodi:cy="359.64566"
       sodipodi:rx="4.4291339"
       sodipodi:ry="4.4291339"
       d="m 197.53936,359.64566 c 0,2.44614 -1.98299,4.42913 -4.42913,4.42913 -2.44614,0 -4.42913,-1.98299 -4.42913,-4.42913 0,-2.44614 1.98299,-4.42913 4.42913,-4.42913 2.44614,0 4.42913,1.98299 4.42913,4.42913 z" />
    <path
       transform="translate(4.3173229e-6,255.11812)"
       sodipodi:type="arc"
       style="fill:none;stroke:#000000;stroke-width:0.17716535;stroke-miterlimit:4;stroke-opacity:1;stroke-dasharray:none;marker-start:none"
       id="path3773-1-3"
       sodipodi:cx="292.32285"
       sodipodi:cy="359.64566"
       sodipodi:rx="4.4291339"
       sodipodi:ry="4.4291339"
       d="m 296.75198,359.64566 c 0,2.44614 -1.98299,4.42913 -4.42913,4.42913 -2.44615,0 -4.42914,-1.98299 -4.42914,-4.42913 0,-2.44614 1.98299,-4.42913 4.42914,-4.42913 2.44614,0 4.42913,1.98299 4.42913,4.42913 z" />
    <path
       transform="translate(4.3173229e-6,255.11812)"
       sodipodi:type="arc"
       style="fill:none;stroke:#000000;stroke-width:0.17716535;stroke-miterlimit:4;stroke-opacity:1;stroke-dasharray:none;marker-start:none"
       id="path3775-8-7"
       sodipodi:cx="193.11023"
       sodipodi:cy="458.85825"
       sodipodi:rx="4.4291339"
       sodipodi:ry="4.4291339"
       d="m 197.53936,458.85825 c 0,2.44614 -1.98299,4.42913 -4.42913,4.42913 -2.44614,0 -4.42913,-1.98299 -4.42913,-4.42913 0,-2.44615 1.98299,-4.42914 4.42913,-4.42914 2.44614,0 4.42913,1.98299 4.42913,4.42914 z" />
    <path
       transform="translate(4.3173229e-6,255.11812)"
       sodipodi:type="arc"
       style="fill:none;stroke:#000000;stroke-width:0.17716535;stroke-miterlimit:4;stroke-opacity:1;stroke-dasharray:none;marker-start:none"
       id="path3777-3-0"
       sodipodi:cx="292.32285"
       sodipodi:cy="458.85825"
       sodipodi:rx="4.4291339"
       sodipodi:ry="4.4291339"
       d="m 296.75198,458.85825 c 0,2.44614 -1.98299,4.42913 -4.42913,4.42913 -2.44615,0 -4.42914,-1.98299 -4.42914,-4.42913 0,-2.44615 1.98299,-4.42914 4.42914,-4.42914 2.44614,0 4.42913,1.98299 4.42913,4.42914 z" />
    <path
       sodipodi:type="arc"
       style="fill:none;stroke:#000000;stroke-width:0.17716535;stroke-miterlimit:4;stroke-opacity:1;stroke-dasharray:none;marker-start:none"
       id="path3899"
       sodipodi:cx="391.53543"
       sodipodi:cy="391.5354"
       sodipodi:rx="58.464565"
       sodipodi:ry="58.464565"
       d="m 450,391.5354 c 0,32.28909 -26.17548,58.46457 -58.46457,58.46457 -32.28909,0 -58.46456,-26.17548 -58.46456,-58.46457 0,-32.28909 26.17547,-58.46456 58.46456,-58.46456 32.28909,0 58.46457,26.17547 58.46457,58.46456 z"
       transform="translate(-21.25984,17.716547)" />
    <path
       sodipodi:type="arc"
       style="fill:none;stroke:#000000;stroke-width:0.17716535;stroke-miterlimit:4;stroke-opacity:1;stroke-dasharray:none;marker-start:none"
       id="path3920"
       sodipodi:cx="240.94489"
       sodipodi:cy="535.03937"
       sodipodi:rx="21.259842"
       sodipodi:ry="21.259842"
       d="m 262.20473,535.03937 c 0,11.74148 -9.51836,21.25984 -21.25984,21.25984 -11.74149,0 -21.25985,-9.51836 -21.25985,-21.25984 0,-11.74149 9.51836,-21.25984 21.25985,-21.25984 11.74148,0 21.25984,9.51835 21.25984,21.25984 z"
       transform="translate(1.7716502,1.7716358)" />
    <path
       sodipodi:type="arc"
       style="fill:none;stroke:#000000;stroke-width:0.17716535;stroke-miterlimit:4;stroke-opacity:1;stroke-dasharray:none;marker-start:none"
       id="path3938"
       sodipodi:cx="370.71851"
       sodipodi:cy="529.28149"
       sodipodi:rx="44.734253"
       sodipodi:ry="44.734253"
       d="m 415.45276,529.28149 c 0,24.70605 -20.02821,44.73426 -44.73425,44.73426 -24.70605,0 -44.73426,-20.02821 -44.73426,-44.73426 0,-24.70604 20.02821,-44.73425 44.73426,-44.73425 24.70604,0 44.73425,20.02821 44.73425,44.73425 z"
       transform="translate(-0.44291531,7.5295109)" />
    <path
       style="fill:none;stroke:#000000;stroke-width:0.17716535;stroke-linecap:butt;stroke-linejoin:miter;stroke-opacity:1;stroke-miterlimit:4;stroke-dasharray:none;marker-start:none"
       d="m 308.26772,602.36219 124.01575,0 0,124.01575 -124.01575,0 z"
       id="path2989-2-9"
       inkscape:connector-curvature="0" />
    <path
       transform="translate(127.55906,255.11812)"
       sodipodi:type="arc"
       style="fill:none;stroke:#000000;stroke-width:0.17716535;stroke-miterlimit:4;stroke-opacity:1;stroke-dasharray:none;marker-start:none"
       id="path3769-41-2"
       sodipodi:cx="193.11023"
       sodipodi:cy="359.64566"
       sodipodi:rx="4.4291339"
       sodipodi:ry="4.4291339"
       d="m 197.53936,359.64566 c 0,2.44614 -1.98299,4.42913 -4.42913,4.42913 -2.44614,0 -4.42913,-1.98299 -4.42913,-4.42913 0,-2.44614 1.98299,-4.42913 4.42913,-4.42913 2.44614,0 4.42913,1.98299 4.42913,4.42913 z" />
    <path
       transform="translate(127.55906,255.11812)"
       sodipodi:type="arc"
       style="fill:none;stroke:#000000;stroke-width:0.17716535;stroke-miterlimit:4;stroke-opacity:1;stroke-dasharray:none;marker-start:none"
       id="path3773-1-4"
       sodipodi:cx="292.32285"
       sodipodi:cy="359.64566"
       sodipodi:rx="4.4291339"
       sodipodi:ry="4.4291339"
       d="m 296.75198,359.64566 c 0,2.44614 -1.98299,4.42913 -4.42913,4.42913 -2.44615,0 -4.42914,-1.98299 -4.42914,-4.42913 0,-2.44614 1.98299,-4.42913 4.42914,-4.42913 2.44614,0 4.42913,1.98299 4.42913,4.42913 z" />
    <path
       transform="translate(127.55906,255.11812)"
       sodipodi:type="arc"
       style="fill:none;stroke:#000000;stroke-width:0.17716535;stroke-miterlimit:4;stroke-opacity:1;stroke-dasharray:none;marker-start:none"
       id="path3775-8-0"
       sodipodi:cx="193.11023"
       sodipodi:cy="458.85825"
       sodipodi:rx="4.4291339"
       sodipodi:ry="4.4291339"
       d="m 197.53936,458.85825 c 0,2.44614 -1.98299,4.42913 -4.42913,4.42913 -2.44614,0 -4.42913,-1.98299 -4.42913,-4.42913 0,-2.44615 1.98299,-4.42914 4.42913,-4.42914 2.44614,0 4.42913,1.98299 4.42913,4.42914 z" />
    <path
       transform="translate(127.55906,255.11812)"
       sodipodi:type="arc"
       style="fill:none;stroke:#000000;stroke-width:0.17716535;stroke-miterlimit:4;stroke-opacity:1;stroke-dasharray:none;marker-start:none"
       id="path3777-3-3"
       sodipodi:cx="292.32285"
       sodipodi:cy="458.85825"
       sodipodi:rx="4.4291339"
       sodipodi:ry="4.4291339"
       d="m 296.75198,458.85825 c 0,2.44614 -1.98299,4.42913 -4.42913,4.42913 -2.44615,0 -4.42914,-1.98299 -4.42914,-4.42913 0,-2.44615 1.98299,-4.42914 4.42914,-4.42914 2.44614,0 4.42913,1.98299 4.42913,4.42914 z" />
    <path
       sodipodi:type="arc"
       style="fill:none;stroke:#000000;stroke-width:0.17716535;stroke-miterlimit:4;stroke-opacity:1;stroke-dasharray:none;marker-start:none"
       id="path3920-5"
       sodipodi:cx="240.94489"
       sodipodi:cy="535.03937"
       sodipodi:rx="21.259842"
       sodipodi:ry="21.259842"
       d="m 262.20473,535.03937 c 0,11.74148 -9.51836,21.25984 -21.25984,21.25984 -11.74149,0 -21.25985,-9.51836 -21.25985,-21.25984 0,-11.74149 9.51836,-21.25984 21.25985,-21.25984 11.74148,0 21.25984,9.51835 21.25984,21.25984 z"
       transform="translate(129.33071,129.33071)" />
    <path
       style="fill:none;stroke:#000000;stroke-width:0.17716535;stroke-linecap:butt;stroke-linejoin:miter;stroke-opacity:1;stroke-miterlimit:4;stroke-dasharray:none;marker-start:none"
       d="m 180.70866,729.92124 124.01575,0 0,124.01575 -124.01575,0 z"
       id="path2989-2-4-4"
       inkscape:connector-curvature="0" />
    <path
       transform="translate(-1.1826772e-6,382.67717)"
       sodipodi:type="arc"
       style="fill:none;stroke:#000000;stroke-width:0.17716535;stroke-miterlimit:4;stroke-opacity:1;stroke-dasharray:none;marker-start:none"
       id="path3769-41-4-4"
       sodipodi:cx="193.11023"
       sodipodi:cy="359.64566"
       sodipodi:rx="4.4291339"
       sodipodi:ry="4.4291339"
       d="m 197.53936,359.64566 c 0,2.44614 -1.98299,4.42913 -4.42913,4.42913 -2.44614,0 -4.42913,-1.98299 -4.42913,-4.42913 0,-2.44614 1.98299,-4.42913 4.42913,-4.42913 2.44614,0 4.42913,1.98299 4.42913,4.42913 z" />
    <path
       transform="translate(-1.1826772e-6,382.67717)"
       sodipodi:type="arc"
       style="fill:none;stroke:#000000;stroke-width:0.17716535;stroke-miterlimit:4;stroke-opacity:1;stroke-dasharray:none;marker-start:none"
       id="path3773-1-3-1"
       sodipodi:cx="292.32285"
       sodipodi:cy="359.64566"
       sodipodi:rx="4.4291339"
       sodipodi:ry="4.4291339"
       d="m 296.75198,359.64566 c 0,2.44614 -1.98299,4.42913 -4.42913,4.42913 -2.44615,0 -4.42914,-1.98299 -4.42914,-4.42913 0,-2.44614 1.98299,-4.42913 4.42914,-4.42913 2.44614,0 4.42913,1.98299 4.42913,4.42913 z" />
    <path
       transform="translate(-1.1826772e-6,382.67717)"
       sodipodi:type="arc"
       style="fill:none;stroke:#000000;stroke-width:0.17716535;stroke-miterlimit:4;stroke-opacity:1;stroke-dasharray:none;marker-start:none"
       id="path3775-8-7-2"
       sodipodi:cx="193.11023"
       sodipodi:cy="458.85825"
       sodipodi:rx="4.4291339"
       sodipodi:ry="4.4291339"
       d="m 197.53936,458.85825 c 0,2.44614 -1.98299,4.42913 -4.42913,4.42913 -2.44614,0 -4.42913,-1.98299 -4.42913,-4.42913 0,-2.44615 1.98299,-4.42914 4.42913,-4.42914 2.44614,0 4.42913,1.98299 4.42913,4.42914 z" />
    <path
       transform="translate(-1.1826772e-6,382.67717)"
       sodipodi:type="arc"
       style="fill:none;stroke:#000000;stroke-width:0.17716535;stroke-miterlimit:4;stroke-opacity:1;stroke-dasharray:none;marker-start:none"
       id="path3777-3-0-6"
       sodipodi:cx="292.32285"
       sodipodi:cy="458.85825"
       sodipodi:rx="4.4291339"
       sodipodi:ry="4.4291339"
       d="m 296.75198,458.85825 c 0,2.44614 -1.98299,4.42913 -4.42913,4.42913 -2.44615,0 -4.42914,-1.98299 -4.42914,-4.42913 0,-2.44615 1.98299,-4.42914 4.42914,-4.42914 2.44614,0 4.42913,1.98299 4.42913,4.42914 z" />
    <path
       style="fill:none;stroke:#000000;stroke-width:0.17716535;stroke-linecap:butt;stroke-linejoin:miter;stroke-opacity:1;stroke-miterlimit:4;stroke-dasharray:none;marker-start:none"
       d="m 205.51181,627.16533 74.40945,0 0,74.40945 -74.40945,0 z"
       id="path4022"
       inkscape:connector-curvature="0"
       transform="translate(0,2.5390623e-6)" />
    <path
       style="fill:none;stroke:#000000;stroke-width:0.17716535;stroke-linecap:butt;stroke-linejoin:miter;stroke-opacity:1;stroke-miterlimit:4;stroke-dasharray:none;marker-start:none"
       d="m 204.62598,753.83856 76.18111,0 0,76.1811 -76.18111,0 z"
       id="path4028"
       inkscape:connector-curvature="0" />
    <path
       sodipodi:type="arc"
       style="fill:none;stroke:#000000;stroke-width:0.17716534;stroke-miterlimit:4;stroke-opacity:1;stroke-dasharray:none;stroke-dashoffset:0;marker-start:none"
       id="path3081"
       sodipodi:cx="370.2756"
       sodipodi:cy="774.21259"
       sodipodi:rx="44.29134"
       sodipodi:ry="44.29134"
       d="m 414.56694,774.21259 a 44.29134,44.29134 0 1 1 -88.58268,0 44.29134,44.29134 0 1 1 88.58268,0 z"
       transform="translate(-17.251817,0.40663242)" />
    <path
       sodipodi:type="arc"
       style="fill:none;stroke:#000000;stroke-width:0.17716534;stroke-miterlimit:4;stroke-opacity:1;stroke-dasharray:none;stroke-dashoffset:0;marker-start:none"
       id="path3083"
       sodipodi:cx="372.04724"
       sodipodi:cy="793.70074"
       sodipodi:rx="21.259842"
       sodipodi:ry="21.259842"
       d="m 393.30708,793.70074 a 21.259842,21.259842 0 1 1 -42.51968,0 21.259842,21.259842 0 1 1 42.51968,0 z"
       transform="translate(-19.751817,-19.593367)" />
    <path
       sodipodi:type="arc"
       style="fill:none;stroke:#000000;stroke-width:0.17716534;stroke-miterlimit:4;stroke-opacity:1;stroke-dasharray:none;stroke-dashoffset:0;marker-start:none"
       id="path3081-1"
       sodipodi:cx="370.2756"
       sodipodi:cy="774.21259"
       sodipodi:rx="44.29134"
       sodipodi:ry="44.29134"
       d="m 414.56694,774.21259 a 44.29134,44.29134 0 1 1 -88.58268,0 44.29134,44.29134 0 1 1 88.58268,0 z"
       transform="translate(78.456341,-1.2989451)" />
    <path
       sodipodi:type="arc"
       style="fill:none;stroke:#000000;stroke-width:0.17716534;stroke-miterlimit:4;stroke-opacity:1;stroke-dasharray:none;stroke-dashoffset:0;marker-start:none"
       id="path3083-7"
       sodipodi:cx="372.04724"
       sodipodi:cy="793.70074"
       sodipodi:rx="21.259842"
       sodipodi:ry="21.259842"
       d="m 393.30708,793.70074 a 21.259842,21.259842 0 1 1 -42.51968,0 21.259842,21.259842 0 1 1 42.51968,0 z"
       transform="translate(75.956341,-21.298935)" />
    <path
       sodipodi:type="arc"
       style="fill:none;stroke:#000000;stroke-width:0.17716534;stroke-miterlimit:4;stroke-opacity:1;stroke-dasharray:none;stroke-dashoffset:0;marker-start:none"
       id="path3106"
       sodipodi:cx="478.34647"
       sodipodi:cy="666.14172"
       sodipodi:rx="24.80315"
       sodipodi:ry="24.80315"
       d="m 503.14962,666.14172 a 24.80315,24.80315 0 1 1 -49.6063,0 24.80315,24.80315 0 1 1 49.6063,0 z"
       transform="translate(-144.45181,181.32238)" />
    <path
       sodipodi:type="arc"
       style="fill:none;stroke:#000000;stroke-width:0.17716534;stroke-miterlimit:4;stroke-opacity:1;stroke-dasharray:none;stroke-dashoffset:0;marker-start:none"
       id="path3108"
       sodipodi:cx="486.31891"
       sodipodi:cy="659.94092"
       sodipodi:rx="21.259842"
       sodipodi:ry="21.259842"
       d="m 507.57875,659.94092 a 21.259842,21.259842 0 1 1 -42.51968,0 21.259842,21.259842 0 1 1 42.51968,0 z"
       transform="translate(-152.48753,187.4831)" />
    <path
       sodipodi:type="arc"
       style="fill:none;stroke:#000000;stroke-width:0.17716534;stroke-miterlimit:4;stroke-opacity:1;stroke-dasharray:none;stroke-dashoffset:0;marker-start:none"
       id="path3108-0"
       sodipodi:cx="486.31891"
       sodipodi:cy="659.94092"
       sodipodi:rx="21.259842"
       sodipodi:ry="21.259842"
       d="m 507.57875,659.94092 a 21.259842,21.259842 0 1 1 -42.51968,0 21.259842,21.259842 0 1 1 42.51968,0 z"
       transform="translate(-83.886461,186.76436)" />
    <path
       sodipodi:type="arc"
       style="fill:none;stroke:#000000;stroke-width:0.17716534;stroke-miterlimit:4;stroke-opacity:1;stroke-dasharray:none;stroke-dashoffset:0"
       id="path4081"
       sodipodi:cx="399.50787"
       sodipodi:cy="845.96454"
       sodipodi:rx="23.917322"
       sodipodi:ry="23.917322"
       d="m 423.4252,845.96454 a 23.917322,23.917322 0 1 1 -47.83465,0 23.917322,23.917322 0 1 1 47.83465,0 z"
       transform="translate(3.2142857,0.89285969)" />
    <path
       sodipodi:type="arc"
       style="fill:none;stroke:#000000;stroke-width:0.17716534;stroke-miterlimit:4;stroke-opacity:1;stroke-dasharray:none;stroke-dashoffset:0"
       id="path4083"
       sodipodi:cx="471.25986"
       sodipodi:cy="846.85034"
       sodipodi:rx="21.259842"
       sodipodi:ry="21.259842"
       d="m 492.5197,846.85034 a 21.259842,21.259842 0 1 1 -42.51968,0 21.259842,21.259842 0 1 1 42.51968,0 z"
       transform="translate(0,2.5390623e-6)" />
    <path
       sodipodi:type="arc"
       style="fill:none;stroke:#000000;stroke-width:0.17716534;stroke-miterlimit:4;stroke-opacity:1;stroke-dasharray:none;stroke-dashoffset:0"
       id="path4085"
       sodipodi:cx="471.25986"
       sodipodi:cy="846.85034"
       sodipodi:rx="24.80315"
       sodipodi:ry="24.80315"
       d="m 496.06301,846.85034 a 24.80315,24.80315 0 1 1 -49.6063,0 24.80315,24.80315 0 1 1 49.6063,0 z"
       transform="translate(0,2.5390623e-6)" />
    <path
       sodipodi:type="arc"
       style="fill:none;stroke:#000000;stroke-width:0.17716534;stroke-miterlimit:4;stroke-opacity:1;stroke-dasharray:none;stroke-dashoffset:0"
       id="path4141"
       sodipodi:cx="487.20471"
       sodipodi:cy="660.82672"
       sodipodi:rx="44.29134"
       sodipodi:ry="44.29134"
       d="m 531.49605,660.82672 a 44.29134,44.29134 0 1 1 -88.58268,0 44.29134,44.29134 0 1 1 88.58268,0 z"
       transform="translate(-2.6008878,23.002637)" />
    <path
       sodipodi:type="arc"
       style="fill:none;stroke:#000000;stroke-width:0.17716534;stroke-miterlimit:4;stroke-opacity:1;stroke-dasharray:none;stroke-dashoffset:0"
       id="path4143"
       sodipodi:cx="474.80316"
       sodipodi:cy="669.685"
       sodipodi:rx="17.716536"
       sodipodi:ry="17.716536"
       d="m 492.5197,669.685 a 17.716536,17.716536 0 1 1 -35.43307,0 17.716536,17.716536 0 1 1 35.43307,0 z"
       transform="translate(9.7945075,13.738587)" />
    <path
       sodipodi:type="arc"
       style="fill:none;stroke:#000000;stroke-width:0.17716534;stroke-miterlimit:4;stroke-opacity:1;stroke-dasharray:none;stroke-dashoffset:0"
       id="path4141-1"
       sodipodi:cx="487.20471"
       sodipodi:cy="660.82672"
       sodipodi:rx="44.29134"
       sodipodi:ry="44.29134"
       d="m 531.49605,660.82672 a 44.29134,44.29134 0 1 1 -88.58268,0 44.29134,44.29134 0 1 1 88.58268,0 z"
       transform="translate(-4.3880867,-71.174747)" />
    <path
       sodipodi:type="arc"
       style="fill:none;stroke:#000000;stroke-width:0.17716534;stroke-miterlimit:4;stroke-opacity:1;stroke-dasharray:none;stroke-dashoffset:0"
       id="path4143-7"
       sodipodi:cx="474.80316"
       sodipodi:cy="669.685"
       sodipodi:rx="17.716536"
       sodipodi:ry="17.716536"
       d="m 492.5197,669.685 a 17.716536,17.716536 0 1 1 -35.43307,0 17.716536,17.716536 0 1 1 35.43307,0 z"
       transform="translate(8.0073132,-80.438801)" />
    <path
       sodipodi:type="arc"
       style="fill:none;stroke:#000000;stroke-width:0.17716534;stroke-miterlimit:4;stroke-opacity:1;stroke-dasharray:none;stroke-dashoffset:0"
       id="path4166"
       sodipodi:cx="480.1181"
       sodipodi:cy="508.46454"
       sodipodi:rx="17.716536"
       sodipodi:ry="17.716536"
       d="m 497.83464,508.46454 a 17.716536,17.716536 0 1 1 -35.43307,0 17.716536,17.716536 0 1 1 35.43307,0 z"
       transform="translate(-25.36925,20.90279)" />
    <path
       sodipodi:type="arc"
       style="fill:none;stroke:#000000;stroke-width:0.17716534;stroke-miterlimit:4;stroke-opacity:1;stroke-dasharray:none;stroke-dashoffset:0"
       id="path4168"
       sodipodi:cx="478.34647"
       sodipodi:cy="506.6929"
       sodipodi:rx="19.48819"
       sodipodi:ry="19.48819"
       d="m 497.83466,506.6929 a 19.48819,19.48819 0 1 1 -38.97638,0 19.48819,19.48819 0 1 1 38.97638,0 z"
       transform="translate(-23.490533,22.521966)" />
    <path
       sodipodi:type="arc"
       style="fill:none;stroke:#000000;stroke-width:0.17716534;stroke-miterlimit:4;stroke-opacity:1;stroke-dasharray:none;stroke-dashoffset:0"
       id="path4170"
       sodipodi:cx="509.3504"
       sodipodi:cy="520.86615"
       sodipodi:rx="17.716536"
       sodipodi:ry="17.716536"
       d="m 527.06694,520.86615 a 17.716536,17.716536 0 1 1 -35.43307,0 17.716536,17.716536 0 1 1 35.43307,0 z"
       transform="translate(1.0101525,9.2176445)" />
    <path
       sodipodi:type="arc"
       style="fill:none;stroke:#000000;stroke-width:0.17716534;stroke-miterlimit:4;stroke-opacity:1;stroke-dasharray:none;stroke-dashoffset:0"
       id="path4172"
       sodipodi:cx="509.3504"
       sodipodi:cy="520.86615"
       sodipodi:rx="18.602362"
       sodipodi:ry="18.602362"
       d="m 527.95276,520.86615 a 18.602362,18.602362 0 1 1 -37.20472,0 18.602362,18.602362 0 1 1 37.20472,0 z"
       transform="translate(1.0101525,9.2176445)" />
    <path
       sodipodi:type="arc"
       style="fill:none;stroke:#000000;stroke-width:0.17716534;stroke-miterlimit:4;stroke-opacity:1;stroke-dasharray:none;stroke-dashoffset:0"
       id="path4174"
       sodipodi:cx="478.34647"
       sodipodi:cy="481.00391"
       sodipodi:rx="17.716536"
       sodipodi:ry="17.716536"
       d="m 496.063,481.00391 a 17.716536,17.716536 0 1 1 -35.43307,0 17.716536,17.716536 0 1 1 35.43307,0 z"
       transform="translate(4.7982246,15.152291)" />
    <path
       sodipodi:type="arc"
       style="fill:none;stroke:#000000;stroke-width:0.17716534;stroke-miterlimit:4;stroke-opacity:1;stroke-dasharray:none;stroke-dashoffset:0"
       id="path4176"
       sodipodi:cx="478.34647"
       sodipodi:cy="481.00391"
       sodipodi:rx="20.374016"
       sodipodi:ry="20.374016"
       d="m 498.72048,481.00391 a 20.374016,20.374016 0 1 1 -40.74803,0 20.374016,20.374016 0 1 1 40.74803,0 z"
       transform="translate(4.7982246,15.152291)" />
    <text
       xml:space="preserve"
       style="font-size:24px;font-style:normal;font-weight:normal;line-height:125%;letter-spacing:0px;word-spacing:0px;fill:#000000;fill-opacity:1;stroke:none;font-family:Sans"
       x="343.70078"
       y="407.48029"
       id="text4178"
       sodipodi:linespacing="125%"><tspan
         sodipodi:role="line"
         id="tspan4180"
         x="343.70078"
         y="407.48029"
         style="font-size:12px;line-height:125%">ø 33.0mm</tspan></text>
    <text
       xml:space="preserve"
       style="font-size:6px;font-style:normal;font-weight:normal;line-height:125%;letter-spacing:0px;word-spacing:0px;fill:#000000;fill-opacity:1;stroke:none;font-family:Sans"
       x="311.81104"
       y="354.33069"
       id="text4182"
       sodipodi:linespacing="125%"><tspan
         sodipodi:role="line"
         id="tspan4184"
         x="311.81104"
         y="354.33069">28 * ø 2.5 mm</tspan></text>
    <text
       xml:space="preserve"
       style="font-size:6px;font-style:normal;font-weight:normal;line-height:125%;letter-spacing:0px;word-spacing:0px;fill:#000000;fill-opacity:1;stroke:none;font-family:Sans"
       x="221.4567"
       y="396.85037"
       id="text4186"
       sodipodi:linespacing="125%"><tspan
         sodipodi:role="line"
         id="tspan4188"
         x="221.4567"
         y="396.85037">Squares:</tspan><tspan
         sodipodi:role="line"
         x="221.4567"
         y="404.35037"
         id="tspan4432">7 * 35.0 X 35 .0 mm</tspan></text>
    <text
       xml:space="preserve"
       style="font-size:6px;font-style:normal;font-weight:normal;line-height:125%;letter-spacing:0px;word-spacing:0px;fill:#000000;fill-opacity:1;stroke:none;font-family:Sans"
       x="336.61417"
       y="772.44092"
       id="text4190"
       sodipodi:linespacing="125%"><tspan
         sodipodi:role="line"
         id="tspan4192"
         x="336.61417"
         y="772.44092">ID 12.0 mm</tspan><tspan
         sodipodi:role="line"
         x="336.61417"
         y="779.94092"
         id="tspan4194">OD 25.0 mm</tspan></text>
    <text
       xml:space="preserve"
       style="font-size:6px;font-style:normal;font-weight:normal;line-height:125%;letter-spacing:0px;word-spacing:0px;fill:#000000;fill-opacity:1;stroke:none;font-family:Sans"
       x="318.89764"
       y="846.8504"
       id="text4190-1"
       sodipodi:linespacing="125%"><tspan
         sodipodi:role="line"
         id="tspan4192-1"
         x="318.89764"
         y="846.8504">ID 12.0 mm</tspan><tspan
         sodipodi:role="line"
         x="318.89764"
         y="854.3504"
         id="tspan4194-5">OD 14.0 mm</tspan></text>
    <text
       xml:space="preserve"
       style="font-size:6px;font-style:normal;font-weight:normal;line-height:125%;letter-spacing:0px;word-spacing:0px;fill:#000000;fill-opacity:1;stroke:none;font-family:Sans"
       x="386.22046"
       y="843.30707"
       id="text4190-1-2"
       sodipodi:linespacing="125%"><tspan
         sodipodi:role="line"
         id="tspan4192-1-7"
         x="386.22046"
         y="843.30707">ID 12.0 mm</tspan><tspan
         sodipodi:role="line"
         x="386.22046"
         y="850.80707"
         id="tspan4194-5-6">OD 13.0 mm</tspan></text>
    <text
       xml:space="preserve"
       style="font-size:6px;font-style:normal;font-weight:normal;line-height:125%;letter-spacing:0px;word-spacing:0px;fill:#000000;fill-opacity:1;stroke:none;font-family:Sans"
       x="453.5433"
       y="846.8504"
       id="text4190-1-2-1"
       sodipodi:linespacing="125%"><tspan
         sodipodi:role="line"
         id="tspan4192-1-7-4"
         x="453.5433"
         y="846.8504">ID 12.0 mm</tspan><tspan
         sodipodi:role="line"
         x="453.5433"
         y="854.3504"
         id="tspan4194-5-6-2">OD 13.5 mm</tspan></text>
    <text
       xml:space="preserve"
       style="font-size:6px;font-style:normal;font-weight:normal;line-height:125%;letter-spacing:0px;word-spacing:0px;fill:#000000;fill-opacity:1;stroke:none;font-family:Sans"
       x="432.28348"
       y="772.44092"
       id="text4190-3"
       sodipodi:linespacing="125%"><tspan
         sodipodi:role="line"
         id="tspan4192-2"
         x="432.28348"
         y="772.44092">ID 12.0 mm</tspan><tspan
         sodipodi:role="line"
         x="432.28348"
         y="779.94092"
         id="tspan4194-2">OD 25.0 mm</tspan></text>
    <text
       xml:space="preserve"
       style="font-size:6px;font-style:normal;font-weight:normal;line-height:125%;letter-spacing:0px;word-spacing:0px;fill:#000000;fill-opacity:1;stroke:none;font-family:Sans"
       x="467.71652"
       y="708.66138"
       id="text4190-3-1"
       sodipodi:linespacing="125%"><tspan
         sodipodi:role="line"
         id="tspan4192-2-6"
         x="467.71652"
         y="708.66138">ID 10.0 mm</tspan><tspan
         sodipodi:role="line"
         x="467.71652"
         y="716.16138"
         id="tspan4194-2-8">OD 25.0 mm</tspan></text>
    <text
       xml:space="preserve"
       style="font-size:6px;font-style:normal;font-weight:normal;line-height:125%;letter-spacing:0px;word-spacing:0px;fill:#000000;fill-opacity:1;stroke:none;font-family:Sans"
       x="467.71652"
       y="616.5354"
       id="text4190-3-5"
       sodipodi:linespacing="125%"><tspan
         sodipodi:role="line"
         id="tspan4192-2-7"
         x="467.71652"
         y="616.5354">ID 10.0 mm</tspan><tspan
         sodipodi:role="line"
         x="467.71652"
         y="624.0354"
         id="tspan4194-2-6">OD 25.0 mm</tspan></text>
    <text
       xml:space="preserve"
       style="font-size:24px;font-style:normal;font-weight:normal;line-height:125%;letter-spacing:0px;word-spacing:0px;fill:#000000;fill-opacity:1;stroke:none;font-family:Sans"
       x="217.91339"
       y="538.58264"
       id="text4178-1"
       sodipodi:linespacing="125%"><tspan
         sodipodi:role="line"
         id="tspan4180-8"
         x="217.91339"
         y="538.58264"
         style="font-size:9px;line-height:125%">ø 12.0 mm</tspan></text>
    <text
       xml:space="preserve"
       style="font-size:24px;font-style:normal;font-weight:normal;line-height:125%;letter-spacing:0px;word-spacing:0px;fill:#000000;fill-opacity:1;stroke:none;font-family:Sans"
       x="350.78741"
       y="666.14172"
       id="text4178-1-9"
       sodipodi:linespacing="125%"><tspan
         sodipodi:role="line"
         id="tspan4180-8-2"
         x="350.78741"
         y="666.14172"
         style="font-size:9px;line-height:125%">ø 12.0 mm</tspan></text>
    <text
       xml:space="preserve"
       style="font-size:24px;font-style:normal;font-weight:normal;line-height:125%;letter-spacing:0px;word-spacing:0px;fill:#000000;fill-opacity:1;stroke:none;font-family:Sans"
       x="350.78741"
       y="538.58264"
       id="text4178-1-7"
       sodipodi:linespacing="125%"><tspan
         sodipodi:role="line"
         id="tspan4180-8-9"
         x="350.78741"
         y="538.58264"
         style="font-size:9px;line-height:125%">ø 25.5 mm</tspan></text>
    <text
       xml:space="preserve"
       style="font-size:6px;font-style:normal;font-weight:normal;line-height:125%;letter-spacing:0px;word-spacing:0px;fill:#000000;fill-opacity:1;stroke:none;font-family:Sans"
       x="226.40044"
       y="644.76563"
       id="text4390"
       sodipodi:linespacing="125%"
       transform="translate(0,2.5390623e-6)"><tspan
         sodipodi:role="line"
         id="tspan4392"
         x="226.40044"
         y="644.76563">21.0 X 21.0 mm</tspan></text>
    <text
       xml:space="preserve"
       style="font-size:6px;font-style:normal;font-weight:normal;line-height:125%;letter-spacing:0px;word-spacing:0px;fill:#000000;fill-opacity:1;stroke:none;font-family:Sans"
       x="221.4567"
       y="777.75586"
       id="text4394"
       sodipodi:linespacing="125%"><tspan
         sodipodi:role="line"
         id="tspan4396"
         x="221.4567"
         y="777.75586">21.5 X 21.5 mm</tspan></text>
    <text
       xml:space="preserve"
       style="font-size:6px;font-style:normal;font-weight:normal;line-height:125%;letter-spacing:0px;word-spacing:0px;fill:#000000;fill-opacity:1;stroke:none;font-family:Sans"
       x="492.51968"
       y="527.95276"
       id="text4398"
       sodipodi:linespacing="125%"><tspan
         sodipodi:role="line"
         id="tspan4400"
         x="492.51968"
         y="527.95276">ID 10.0 mm</tspan><tspan
         sodipodi:role="line"
         x="492.51968"
         y="535.45276"
         id="tspan4402">OD 10.5 mm</tspan></text>
    <text
       xml:space="preserve"
       style="font-size:6px;font-style:normal;font-weight:normal;line-height:125%;letter-spacing:0px;word-spacing:0px;fill:#000000;fill-opacity:1;stroke:none;font-family:Sans"
       x="437.59842"
       y="527.95276"
       id="text4404"
       sodipodi:linespacing="125%"><tspan
         sodipodi:role="line"
         id="tspan4406"
         x="437.59842"
         y="527.95276">ID10.0 mm</tspan><tspan
         sodipodi:role="line"
         x="437.59842"
         y="535.45276"
         id="tspan4408">OD 11.0 mm</tspan></text>
    <text
       xml:space="preserve"
       style="font-size:6px;font-style:normal;font-weight:normal;line-height:125%;letter-spacing:0px;word-spacing:0px;fill:#000000;fill-opacity:1;stroke:none;font-family:Sans"
       x="465.94489"
       y="494.29132"
       id="text4410"
       sodipodi:linespacing="125%"><tspan
         sodipodi:role="line"
         id="tspan4412"
         x="465.94489"
         y="494.29132">ID 10 .0 mm</tspan><tspan
         sodipodi:role="line"
         x="465.94489"
         y="501.79132"
         id="tspan4414">OD 12.0 mm</tspan></text>
    <path
       style="fill:none;stroke:#000000;stroke-width:0.17716535;stroke-linecap:butt;stroke-linejoin:miter;stroke-opacity:1;stroke-miterlimit:4;stroke-dasharray:none"
       d="m 263.64557,540.35431 41.07483,0"
       id="path4422"
       inkscape:connector-curvature="0" />
    <path
       style="fill:none;stroke:#000000;stroke-width:0.17716535;stroke-linecap:butt;stroke-linejoin:miter;stroke-miterlimit:4;stroke-opacity:1;stroke-dasharray:none"
       d="m 263.7089,533.26769 41.01513,0"
       id="path4426"
       inkscape:connector-curvature="0" />
    <text
       xml:space="preserve"
       style="font-size:5.79899454px;font-style:normal;font-weight:normal;line-height:125%;letter-spacing:0px;word-spacing:0px;fill:#000000;fill-opacity:1;stroke:none;font-family:Sans"
       x="261.98215"
       y="557.2511"
       id="text4428"
       sodipodi:linespacing="125%"
       transform="scale(1.0346621,0.9664991)"><tspan
         sodipodi:role="line"
         id="tspan4430"
         x="261.98215"
         y="557.2511">2.0 mm</tspan></text>
  </g>
</svg>
